<?xml version="1.0" standalone="no"?>
<!DOCTYPE svg PUBLIC "-//W3C//DTD SVG 20010904//EN"
 "http://www.w3.org/TR/2001/REC-SVG-20010904/DTD/svg10.dtd">
<svg version="1.0" xmlns="http://www.w3.org/2000/svg"
 width="300.000000pt" height="300.000000pt" viewBox="0 0 300.000000 300.000000"
 preserveAspectRatio="xMidYMid meet">
<metadata>
Created by potrace 1.14, written by Peter Selinger 2001-2017
</metadata>
<g transform="translate(0.000000,300.000000) scale(0.100000,-0.100000)"
fill="#000000" stroke="none">
<path d="M1864 2750 c-44 -14 -102 -76 -115 -124 -24 -88 15 -177 93 -215 41
-19 60 -21 269 -21 197 0 229 3 265 19 61 28 97 80 102 150 5 74 -21 130 -80
168 l-41 28 -231 2 c-127 1 -245 -2 -262 -7z m478 -137 c26 -23 22 -58 -8 -82
-25 -20 -40 -21 -223 -21 -222 0 -241 5 -241 64 0 17 5 37 12 44 9 9 73 12
227 12 185 0 217 -2 233 -17z"/>
<path d="M1266 2259 c-80 -19 -146 -101 -146 -180 1 -79 63 -158 142 -179 25
-7 119 -10 252 -8 204 3 213 4 254 28 80 46 114 147 78 233 -20 49 -77 93
-136 106 -61 13 -388 13 -444 0z m454 -139 c24 -24 25 -48 4 -78 -15 -22 -19
-22 -229 -22 -181 0 -216 2 -229 16 -21 20 -20 63 1 86 15 16 35 18 225 18
195 0 209 -1 228 -20z"/>
<path d="M1864 1760 c-44 -14 -102 -76 -115 -124 -24 -88 15 -177 93 -215 41
-19 60 -21 269 -21 197 0 229 3 265 19 61 28 97 80 102 150 5 74 -21 130 -80
168 l-41 28 -231 2 c-127 1 -245 -2 -262 -7z m478 -137 c26 -23 22 -58 -8 -82
-25 -20 -40 -21 -223 -21 -222 0 -241 5 -241 64 0 17 5 37 12 44 9 9 73 12
227 12 185 0 217 -2 233 -17z"/>
<path d="M50 1639 c-13 -5 -28 -15 -32 -22 -4 -7 -8 -273 -8 -593 0 -550 1
-582 18 -597 17 -15 56 -17 354 -17 389 0 368 -6 368 98 0 37 4 62 11 62 15 0
157 -60 294 -125 307 -145 523 -215 661 -215 272 0 923 299 1155 529 91 90
113 136 107 220 -9 117 -70 196 -175 227 -111 32 -166 12 -333 -121 -116 -93
-214 -158 -258 -173 -35 -12 -35 -13 -46 41 -8 36 -70 103 -116 127 -65 33
-179 50 -340 50 -169 0 -167 -1 -310 91 -42 27 -102 60 -134 74 -89 39 -253
82 -342 89 -43 4 -100 9 -126 12 l-48 6 0 102 c0 152 28 141 -359 143 -194 1
-326 -2 -341 -8z m580 -614 l0 -495 -250 0 -250 0 0 495 0 495 250 0 250 0 0
-495z m425 211 c110 -30 215 -77 315 -141 134 -86 140 -87 350 -90 207 -2 273
-15 309 -62 12 -14 21 -30 21 -34 0 -5 -186 -9 -413 -9 -315 0 -417 -3 -429
-12 -27 -22 -30 -53 -7 -81 l20 -27 504 0 503 0 78 40 c44 21 135 84 204 139
157 126 198 148 249 133 50 -15 78 -44 91 -93 14 -53 8 -80 -31 -124 -107
-122 -505 -353 -764 -445 -330 -116 -467 -97 -960 133 -168 78 -293 127 -326
127 -18 0 -19 10 -19 292 l0 291 108 -7 c61 -3 145 -16 197 -30z"/>
</g>
</svg>
